<svg width="18" height="15" viewBox="0 0 18 15" fill="none" xmlns="http://www.w3.org/2000/svg">
<path d="M6.5 5.89766L7.36406 7.625H5.63594L6.5 5.89766ZM17.125 1.375V13.875C17.1251 13.9816 17.0979 14.0864 17.046 14.1796C16.9942 14.2727 16.9193 14.351 16.8287 14.407C16.738 14.4631 16.6345 14.495 16.5281 14.4998C16.4216 14.5046 16.3156 14.4821 16.2203 14.4344L14 13.3234L11.7797 14.4344C11.6929 14.4778 11.5971 14.5004 11.5 14.5004C11.4029 14.5004 11.3071 14.4778 11.2203 14.4344L9 13.3234L6.77969 14.4344C6.69286 14.4778 6.5971 14.5004 6.5 14.5004C6.4029 14.5004 6.30714 14.4778 6.22031 14.4344L4 13.3234L1.77969 14.4344C1.68437 14.4821 1.57843 14.5046 1.47195 14.4998C1.36546 14.495 1.26197 14.4631 1.17131 14.407C1.08065 14.351 1.00584 14.2727 0.953972 14.1796C0.902109 14.0864 0.874924 13.9816 0.875 13.875V1.375C0.875 1.04348 1.0067 0.725537 1.24112 0.491116C1.47554 0.256696 1.79348 0.125 2.125 0.125H15.875C16.2065 0.125 16.5245 0.256696 16.7589 0.491116C16.9933 0.725537 17.125 1.04348 17.125 1.375ZM9.55938 9.22031L7.05938 4.22031C7.00754 4.11631 6.92773 4.02881 6.82892 3.96766C6.73011 3.9065 6.61621 3.8741 6.5 3.8741C6.38379 3.8741 6.26989 3.9065 6.17108 3.96766C6.07227 4.02881 5.99246 4.11631 5.94062 4.22031L3.44063 9.22031C3.36645 9.36867 3.35424 9.54041 3.40669 9.69777C3.45915 9.85512 3.57196 9.9852 3.72031 10.0594C3.86867 10.1336 4.04041 10.1458 4.19777 10.0933C4.35512 10.0409 4.4852 9.92804 4.55938 9.77969L5.01094 8.875H7.98906L8.44062 9.77969C8.47735 9.85315 8.52819 9.91865 8.59024 9.97246C8.65228 10.0263 8.72432 10.0673 8.80223 10.0933C8.88015 10.1193 8.96241 10.1296 9.04433 10.1238C9.12626 10.118 9.20623 10.0961 9.27969 10.0594C9.35315 10.0226 9.41865 9.97181 9.47246 9.90976C9.52627 9.84772 9.56734 9.77568 9.59331 9.69777C9.61928 9.61985 9.62965 9.53759 9.62383 9.45567C9.618 9.37374 9.5961 9.29377 9.55938 9.22031ZM15.25 7C15.25 6.83424 15.1842 6.67527 15.0669 6.55806C14.9497 6.44085 14.7908 6.375 14.625 6.375H13.375V5.125C13.375 4.95924 13.3092 4.80027 13.1919 4.68306C13.0747 4.56585 12.9158 4.5 12.75 4.5C12.5842 4.5 12.4253 4.56585 12.3081 4.68306C12.1908 4.80027 12.125 4.95924 12.125 5.125V6.375H10.875C10.7092 6.375 10.5503 6.44085 10.4331 6.55806C10.3158 6.67527 10.25 6.83424 10.25 7C10.25 7.16576 10.3158 7.32473 10.4331 7.44194C10.5503 7.55915 10.7092 7.625 10.875 7.625H12.125V8.875C12.125 9.04076 12.1908 9.19973 12.3081 9.31694C12.4253 9.43415 12.5842 9.5 12.75 9.5C12.9158 9.5 13.0747 9.43415 13.1919 9.31694C13.3092 9.19973 13.375 9.04076 13.375 8.875V7.625H14.625C14.7908 7.625 14.9497 7.55915 15.0669 7.44194C15.1842 7.32473 15.25 7.16576 15.25 7Z" fill="none"/>
</svg>
