<svg width="184" height="30" viewBox="0 0 184 30" fill="none" xmlns="http://www.w3.org/2000/svg">
<g clip-path="url(#clip0_4638_618)">
<circle cx="14.7724" cy="15.0004" r="15.2275" fill="#F63D68"/>
<path fill-rule="evenodd" clip-rule="evenodd" d="M21.9111 -0.540587C22.6544 0.202751 22.6544 1.40794 21.9111 2.15128L7.55301 16.5093C6.80968 17.2527 5.60449 17.2527 4.86115 16.5093L-0.40602 11.2422C-1.14936 10.4988 -1.14936 9.29365 -0.40602 8.55031L13.952 -5.80775C14.6954 -6.55109 15.9006 -6.55109 16.6439 -5.80775L21.9111 -0.540587Z" fill="#FEA3B4"/>
<path fill-rule="evenodd" clip-rule="evenodd" d="M28.9821 19.6917C29.7255 20.4351 29.7255 21.6403 28.9821 22.3836L16.4818 34.8839C15.7385 35.6273 14.5333 35.6273 13.7899 34.8839L7.35765 28.4516C6.61431 27.7083 6.61431 26.5031 7.35765 25.7598L19.858 13.2595C20.6013 12.5161 21.8065 12.5161 22.5498 13.2595L28.9821 19.6917Z" fill="#C01048"/>
</g>
<path d="M43.188 21V8.4H47.598L49.776 19.38H50.1L52.278 8.4H56.688V21H54.384V10.146H54.06L51.9 21H47.976L45.816 10.146H45.492V21H43.188ZM63.435 21.252C62.463 21.252 61.605 21.078 60.861 20.73C60.117 20.382 59.535 19.884 59.115 19.236C58.695 18.588 58.485 17.808 58.485 16.896V16.392H60.825V16.896C60.825 17.652 61.059 18.222 61.527 18.606C61.995 18.978 62.631 19.164 63.435 19.164C64.251 19.164 64.857 19.002 65.253 18.678C65.661 18.354 65.865 17.94 65.865 17.436C65.865 17.088 65.763 16.806 65.559 16.59C65.367 16.374 65.079 16.2 64.695 16.068C64.323 15.924 63.867 15.792 63.327 15.672L62.913 15.582C62.049 15.39 61.305 15.15 60.681 14.862C60.069 14.562 59.595 14.172 59.259 13.692C58.935 13.212 58.773 12.588 58.773 11.82C58.773 11.052 58.953 10.398 59.313 9.858C59.685 9.306 60.201 8.886 60.861 8.598C61.533 8.298 62.319 8.148 63.219 8.148C64.119 8.148 64.917 8.304 65.613 8.616C66.321 8.916 66.873 9.372 67.269 9.984C67.677 10.584 67.881 11.34 67.881 12.252V12.792H65.541V12.252C65.541 11.772 65.445 11.388 65.253 11.1C65.073 10.8 64.809 10.584 64.461 10.452C64.113 10.308 63.699 10.236 63.219 10.236C62.499 10.236 61.965 10.374 61.617 10.65C61.281 10.914 61.113 11.28 61.113 11.748C61.113 12.06 61.191 12.324 61.347 12.54C61.515 12.756 61.761 12.936 62.085 13.08C62.409 13.224 62.823 13.35 63.327 13.458L63.741 13.548C64.641 13.74 65.421 13.986 66.081 14.286C66.753 14.586 67.275 14.982 67.647 15.474C68.019 15.966 68.205 16.596 68.205 17.364C68.205 18.132 68.007 18.81 67.611 19.398C67.227 19.974 66.675 20.43 65.955 20.766C65.247 21.09 64.407 21.252 63.435 21.252ZM71.4711 21.252C70.9911 21.252 70.5831 21.096 70.2471 20.784C69.9231 20.46 69.7611 20.046 69.7611 19.542C69.7611 19.038 69.9231 18.63 70.2471 18.318C70.5831 17.994 70.9911 17.832 71.4711 17.832C71.9631 17.832 72.3711 17.994 72.6951 18.318C73.0191 18.63 73.1811 19.038 73.1811 19.542C73.1811 20.046 73.0191 20.46 72.6951 20.784C72.3711 21.096 71.9631 21.252 71.4711 21.252ZM75.3384 21V8.4H77.7144V18.84H83.4744V21H75.3384ZM84.2303 21L87.5423 8.4H91.6823L94.9943 21H92.5463L91.8623 18.228H87.3623L86.6783 21H84.2303ZM87.9203 16.032H91.3043L89.7743 9.894H89.4503L87.9203 16.032ZM96.5025 21V8.4H101.02L103.522 19.38H103.846V8.4H106.186V21H101.668L99.1665 10.02H98.8425V21H96.5025ZM113.131 21V8.4H121.231V10.56H115.507V13.566H120.727V15.726H115.507V18.84H121.339V21H113.131ZM123.098 21V8.4H127.616L130.118 19.38H130.442V8.4H132.782V21H128.264L125.762 10.02H125.438V21H123.098ZM139.513 21.252C138.649 21.252 137.863 21.06 137.155 20.676C136.459 20.28 135.901 19.71 135.481 18.966C135.073 18.21 134.869 17.292 134.869 16.212V13.188C134.869 11.568 135.325 10.326 136.237 9.462C137.149 8.586 138.385 8.148 139.945 8.148C141.493 8.148 142.687 8.562 143.527 9.39C144.379 10.206 144.805 11.316 144.805 12.72V12.792H142.465V12.648C142.465 12.204 142.369 11.802 142.177 11.442C141.997 11.082 141.721 10.8 141.349 10.596C140.977 10.38 140.509 10.272 139.945 10.272C139.105 10.272 138.445 10.53 137.965 11.046C137.485 11.562 137.245 12.264 137.245 13.152V16.248C137.245 17.124 137.485 17.832 137.965 18.372C138.445 18.9 139.117 19.164 139.981 19.164C140.845 19.164 141.475 18.936 141.871 18.48C142.267 18.024 142.465 17.448 142.465 16.752V16.572H139.477V14.556H144.805V21H142.609V19.794H142.285C142.201 19.998 142.063 20.214 141.871 20.442C141.691 20.67 141.415 20.862 141.043 21.018C140.671 21.174 140.161 21.252 139.513 21.252ZM147.075 21V8.4H149.451V18.84H155.211V21H147.075ZM156.831 21V8.4H159.207V21H156.831ZM165.951 21.252C164.979 21.252 164.121 21.078 163.377 20.73C162.633 20.382 162.051 19.884 161.631 19.236C161.211 18.588 161.001 17.808 161.001 16.896V16.392H163.341V16.896C163.341 17.652 163.575 18.222 164.043 18.606C164.511 18.978 165.147 19.164 165.951 19.164C166.767 19.164 167.373 19.002 167.769 18.678C168.177 18.354 168.381 17.94 168.381 17.436C168.381 17.088 168.279 16.806 168.075 16.59C167.883 16.374 167.595 16.2 167.211 16.068C166.839 15.924 166.383 15.792 165.843 15.672L165.429 15.582C164.565 15.39 163.821 15.15 163.197 14.862C162.585 14.562 162.111 14.172 161.775 13.692C161.451 13.212 161.289 12.588 161.289 11.82C161.289 11.052 161.469 10.398 161.829 9.858C162.201 9.306 162.717 8.886 163.377 8.598C164.049 8.298 164.835 8.148 165.735 8.148C166.635 8.148 167.433 8.304 168.129 8.616C168.837 8.916 169.389 9.372 169.785 9.984C170.193 10.584 170.397 11.34 170.397 12.252V12.792H168.057V12.252C168.057 11.772 167.961 11.388 167.769 11.1C167.589 10.8 167.325 10.584 166.977 10.452C166.629 10.308 166.215 10.236 165.735 10.236C165.015 10.236 164.481 10.374 164.133 10.65C163.797 10.914 163.629 11.28 163.629 11.748C163.629 12.06 163.707 12.324 163.863 12.54C164.031 12.756 164.277 12.936 164.601 13.08C164.925 13.224 165.339 13.35 165.843 13.458L166.257 13.548C167.157 13.74 167.937 13.986 168.597 14.286C169.269 14.586 169.791 14.982 170.163 15.474C170.535 15.966 170.721 16.596 170.721 17.364C170.721 18.132 170.523 18.81 170.127 19.398C169.743 19.974 169.191 20.43 168.471 20.766C167.763 21.09 166.923 21.252 165.951 21.252ZM172.493 21V8.4H174.869V13.602H179.549V8.4H181.925V21H179.549V15.762H174.869V21H172.493Z" fill="#2C2C2C"/>
<defs>
<clipPath id="clip0_4638_618">
<rect width="30" height="30" rx="15" fill="white"/>
</clipPath>
</defs>
</svg>
