<svg width="20" height="20" viewBox="0 0 20 20" fill="none" xmlns="http://www.w3.org/2000/svg">
<path d="M5.00938 11.5469C5.0115 11.5892 5.00499 11.6315 4.99024 11.6713C4.97548 11.711 4.9528 11.7473 4.92357 11.778C4.89434 11.8087 4.85916 11.8331 4.82019 11.8498C4.78122 11.8665 4.73927 11.8751 4.69688 11.875H1.25001C1.10894 11.8752 0.971953 11.8277 0.861316 11.7402C0.750679 11.6527 0.672902 11.5303 0.640634 11.393C0.620541 11.299 0.621467 11.2017 0.643346 11.1081C0.665225 11.0145 0.707517 10.9269 0.767196 10.8516C1.31861 10.1203 2.05024 9.54452 2.89063 9.18047C2.52167 8.84406 2.23869 8.42415 2.06538 7.95588C1.89208 7.48762 1.8335 6.98465 1.89455 6.4891C1.9556 5.99354 2.13451 5.51983 2.41629 5.10764C2.69807 4.69545 3.07451 4.35677 3.51409 4.11998C3.95368 3.88319 4.4436 3.75518 4.94283 3.74667C5.44206 3.73816 5.93606 3.84939 6.38346 4.07106C6.83085 4.29273 7.21863 4.61837 7.51429 5.02072C7.80996 5.42307 8.00491 5.89041 8.08282 6.38359C8.09288 6.44991 8.081 6.5177 8.04899 6.57665C8.01698 6.6356 7.96658 6.68248 7.90548 6.71015C7.0386 7.11092 6.30443 7.75128 5.78962 8.55568C5.27481 9.36009 5.00083 10.295 5.00001 11.25C5.00001 11.35 5.00001 11.4484 5.00938 11.5469ZM19.2281 10.8508C18.678 10.1204 17.948 9.5449 17.1094 9.18047C17.4783 8.84406 17.7613 8.42415 17.9346 7.95588C18.1079 7.48762 18.1665 6.98465 18.1055 6.4891C18.0444 5.99354 17.8655 5.51983 17.5837 5.10764C17.302 4.69545 16.9255 4.35677 16.4859 4.11998C16.0463 3.88319 15.5564 3.75518 15.0572 3.74667C14.558 3.73816 14.064 3.84939 13.6166 4.07106C13.1692 4.29273 12.7814 4.61837 12.4857 5.02072C12.1901 5.42307 11.9951 5.89041 11.9172 6.38359C11.9071 6.44991 11.919 6.5177 11.951 6.57665C11.983 6.6356 12.0334 6.68248 12.0945 6.71015C12.9614 7.11092 13.6956 7.75128 14.2104 8.55568C14.7252 9.36009 14.9992 10.295 15 11.25C15 11.35 15 11.4484 14.9906 11.5469C14.9885 11.5892 14.995 11.6315 15.0098 11.6713C15.0245 11.711 15.0472 11.7473 15.0764 11.778C15.1057 11.8087 15.1409 11.8331 15.1798 11.8498C15.2188 11.8665 15.2607 11.8751 15.3031 11.875H18.75C18.8911 11.8752 19.0281 11.8277 19.1387 11.7402C19.2493 11.6527 19.3271 11.5303 19.3594 11.393C19.3796 11.2988 19.3787 11.2013 19.3566 11.1076C19.3346 11.0138 19.2921 10.9261 19.232 10.8508H19.2281ZM12.275 14.2242C12.8973 13.7476 13.3546 13.088 13.5827 12.3381C13.8108 11.5882 13.7981 10.7856 13.5465 10.0433C13.2949 9.30092 12.817 8.65606 12.1799 8.19935C11.5429 7.74263 10.7788 7.49701 9.99493 7.49701C9.21109 7.49701 8.44696 7.74263 7.80993 8.19935C7.1729 8.65606 6.69499 9.30092 6.44338 10.0433C6.19177 10.7856 6.17911 11.5882 6.40717 12.3381C6.63523 13.088 7.09255 13.7476 7.71485 14.2242C6.61058 14.7027 5.6885 15.5221 5.0836 16.5625C5.02874 16.6575 4.99986 16.7653 4.99987 16.875C4.99987 16.9848 5.02877 17.0925 5.08364 17.1876C5.13851 17.2826 5.21743 17.3615 5.31246 17.4163C5.40749 17.4712 5.51529 17.5 5.62501 17.5H14.375C14.4847 17.5 14.5925 17.4712 14.6876 17.4163C14.7826 17.3615 14.8615 17.2826 14.9164 17.1876C14.9713 17.0925 15.0001 16.9848 15.0001 16.875C15.0002 16.7653 14.9713 16.6575 14.9164 16.5625C14.3102 15.5214 13.3864 14.7019 12.2805 14.2242H12.275Z" fill="none"/>
</svg>
