<svg width="18" height="14" viewBox="0 0 18 14" fill="none" xmlns="http://www.w3.org/2000/svg">
<path d="M15.875 0.125H2.125C1.79348 0.125 1.47554 0.256696 1.24112 0.491116C1.0067 0.725537 0.875 1.04348 0.875 1.375V12.625C0.875 12.9565 1.0067 13.2745 1.24112 13.5089C1.47554 13.7433 1.79348 13.875 2.125 13.875H3.17109C3.28938 13.875 3.40525 13.8415 3.50524 13.7783C3.60522 13.7151 3.68522 13.6248 3.73594 13.518C4.03986 12.8763 4.5197 12.3341 5.11965 11.9544C5.71959 11.5748 6.415 11.3732 7.125 11.3732C7.835 11.3732 8.53041 11.5748 9.13036 11.9544C9.7303 12.3341 10.2101 12.8763 10.5141 13.518C10.5648 13.6248 10.6448 13.7151 10.7448 13.7783C10.8448 13.8415 10.9606 13.875 11.0789 13.875H15.875C16.2065 13.875 16.5245 13.7433 16.7589 13.5089C16.9933 13.2745 17.125 12.9565 17.125 12.625V1.375C17.125 1.04348 16.9933 0.725537 16.7589 0.491116C16.5245 0.256696 16.2065 0.125 15.875 0.125ZM7.125 10.125C6.63055 10.125 6.1472 9.97838 5.73607 9.70367C5.32495 9.42897 5.00452 9.03852 4.8153 8.58171C4.62608 8.12489 4.57657 7.62223 4.67304 7.13727C4.7695 6.65232 5.0076 6.20686 5.35723 5.85723C5.70686 5.5076 6.15232 5.2695 6.63727 5.17304C7.12223 5.07657 7.62489 5.12608 8.08171 5.3153C8.53852 5.50452 8.92897 5.82495 9.20367 6.23607C9.47838 6.6472 9.625 7.13055 9.625 7.625C9.625 8.28804 9.36161 8.92393 8.89277 9.39277C8.42393 9.86161 7.78804 10.125 7.125 10.125ZM15.875 12.625H11.4555C11.183 12.1552 10.8357 11.733 10.4273 11.375H14C14.1658 11.375 14.3247 11.3092 14.4419 11.1919C14.5592 11.0747 14.625 10.9158 14.625 10.75V3.25C14.625 3.08424 14.5592 2.92527 14.4419 2.80806C14.3247 2.69085 14.1658 2.625 14 2.625H4C3.83424 2.625 3.67527 2.69085 3.55806 2.80806C3.44085 2.92527 3.375 3.08424 3.375 3.25V10.75C3.37493 10.8886 3.42094 11.0233 3.5058 11.1329C3.59065 11.2425 3.70954 11.3208 3.84375 11.3555C3.42595 11.7175 3.07136 12.1465 2.79453 12.625H2.125V1.375H15.875V12.625Z" fill="none"/>
</svg>
