<svg width="14" height="9" viewBox="0 0 14 9" fill="none" xmlns="http://www.w3.org/2000/svg">
<path d="M13.6925 1.94217L7.44254 8.19217C7.38449 8.25028 7.31556 8.29638 7.23969 8.32783C7.16381 8.35928 7.08248 8.37547 7.00035 8.37547C6.91821 8.37547 6.83688 8.35928 6.76101 8.32783C6.68514 8.29638 6.61621 8.25028 6.55816 8.19217L0.30816 1.94217C0.190885 1.82489 0.125 1.66583 0.125 1.49998C0.125 1.33413 0.190885 1.17507 0.30816 1.05779C0.425435 0.940518 0.584495 0.874634 0.750347 0.874634C0.9162 0.874634 1.07526 0.940518 1.19253 1.05779L7.00035 6.86639L12.8082 1.05779C12.8662 0.999725 12.9352 0.953662 13.011 0.922235C13.0869 0.890809 13.1682 0.874634 13.2503 0.874634C13.3325 0.874634 13.4138 0.890809 13.4897 0.922235C13.5655 0.953662 13.6345 0.999725 13.6925 1.05779C13.7506 1.11586 13.7967 1.1848 13.8281 1.26067C13.8595 1.33654 13.8757 1.41786 13.8757 1.49998C13.8757 1.5821 13.8595 1.66342 13.8281 1.73929C13.7967 1.81516 13.7506 1.8841 13.6925 1.94217Z" fill="#2C2C2C"/>
</svg>
