<svg width="16" height="16" viewBox="0 0 16 16" fill="none" xmlns="http://www.w3.org/2000/svg">
<path d="M14.25 0.5H1.75C1.41848 0.5 1.10054 0.631696 0.866116 0.866116C0.631696 1.10054 0.5 1.41848 0.5 1.75V14.25C0.5 14.5815 0.631696 14.8995 0.866116 15.1339C1.10054 15.3683 1.41848 15.5 1.75 15.5H14.25C14.5815 15.5 14.8995 15.3683 15.1339 15.1339C15.3683 14.8995 15.5 14.5815 15.5 14.25V1.75C15.5 1.41848 15.3683 1.10054 15.1339 0.866116C14.8995 0.631696 14.5815 0.5 14.25 0.5ZM1.75 1.75H14.25V7.79531L12.3211 5.86562C12.0867 5.63138 11.7689 5.4998 11.4375 5.4998C11.1061 5.4998 10.7883 5.63138 10.5539 5.86562L2.16953 14.25H1.75V1.75ZM14.25 14.25H3.9375L11.4375 6.75L14.25 9.5625V14.25ZM5.5 7.375C5.87084 7.375 6.23335 7.26503 6.54169 7.05901C6.85004 6.85298 7.09036 6.56014 7.23227 6.21753C7.37419 5.87492 7.41132 5.49792 7.33897 5.13421C7.26663 4.77049 7.08805 4.4364 6.82583 4.17417C6.5636 3.91195 6.22951 3.73337 5.86579 3.66103C5.50208 3.58868 5.12508 3.62581 4.78247 3.76773C4.43986 3.90964 4.14702 4.14996 3.94099 4.45831C3.73497 4.76665 3.625 5.12916 3.625 5.5C3.625 5.99728 3.82254 6.47419 4.17417 6.82583C4.52581 7.17746 5.00272 7.375 5.5 7.375ZM5.5 4.875C5.62361 4.875 5.74445 4.91166 5.84723 4.98033C5.95001 5.04901 6.03012 5.14662 6.07743 5.26082C6.12473 5.37503 6.13711 5.50069 6.11299 5.62193C6.08888 5.74317 6.02935 5.85453 5.94194 5.94194C5.85453 6.02935 5.74317 6.08888 5.62193 6.11299C5.50069 6.13711 5.37503 6.12473 5.26082 6.07743C5.14662 6.03012 5.04901 5.95001 4.98033 5.84723C4.91166 5.74445 4.875 5.62361 4.875 5.5C4.875 5.33424 4.94085 5.17527 5.05806 5.05806C5.17527 4.94085 5.33424 4.875 5.5 4.875Z" fill="#2C2C2C"/>
</svg>
