<svg width="16" height="16" viewBox="0 0 16 16" fill="none" xmlns="http://www.w3.org/2000/svg">
<path d="M4.875 6.12507H1.125C0.95924 6.12507 0.800269 6.05923 0.683058 5.94202C0.565848 5.82481 0.5 5.66583 0.5 5.50007V1.75007C0.5 1.58431 0.565848 1.42534 0.683058 1.30813C0.800269 1.19092 0.95924 1.12507 1.125 1.12507C1.29076 1.12507 1.44973 1.19092 1.56694 1.30813C1.68415 1.42534 1.75 1.58431 1.75 1.75007V3.99148L2.89297 2.84851C4.28688 1.44758 6.18 0.657401 8.15625 0.651636H8.19766C10.1571 0.646588 12.0396 1.41369 13.4375 2.78679C13.5516 2.90356 13.6155 3.06036 13.6156 3.22364C13.6156 3.38692 13.5517 3.54373 13.4375 3.66051C13.3234 3.77728 13.1681 3.84476 13.0049 3.84851C12.8416 3.85225 12.6834 3.79197 12.5641 3.68054C11.3989 2.53685 9.83033 1.89781 8.19766 1.90164H8.1625C6.51577 1.90671 4.93834 2.56504 3.77656 3.73211L2.63359 4.87507H4.875C5.04076 4.87507 5.19973 4.94092 5.31694 5.05813C5.43415 5.17534 5.5 5.33431 5.5 5.50007C5.5 5.66583 5.43415 5.82481 5.31694 5.94202C5.19973 6.05923 5.04076 6.12507 4.875 6.12507ZM14.875 9.87507H11.125C10.9592 9.87507 10.8003 9.94092 10.6831 10.0581C10.5658 10.1753 10.5 10.3343 10.5 10.5001C10.5 10.6658 10.5658 10.8248 10.6831 10.942C10.8003 11.0592 10.9592 11.1251 11.125 11.1251H13.3664L12.2234 12.268C11.0619 13.4349 9.48475 14.0932 7.83828 14.0985H7.80313C6.17045 14.1023 4.60189 13.4633 3.43672 12.3196C3.37851 12.26 3.30898 12.2127 3.23222 12.1804C3.15546 12.1481 3.07302 12.1315 2.98974 12.1315C2.90646 12.1315 2.82402 12.1481 2.74727 12.1805C2.67051 12.2128 2.60099 12.2601 2.54278 12.3197C2.48457 12.3792 2.43886 12.4498 2.40832 12.5273C2.37778 12.6048 2.36303 12.6876 2.36494 12.7708C2.36685 12.8541 2.38538 12.9361 2.41944 13.0121C2.4535 13.0881 2.5024 13.1565 2.56328 13.2134C3.96115 14.5865 5.84369 15.3536 7.80313 15.3485H7.84375C9.81973 15.3425 11.7125 14.5524 13.1062 13.1516L14.25 12.0087V14.2501C14.25 14.4158 14.3158 14.5748 14.4331 14.692C14.5503 14.8092 14.7092 14.8751 14.875 14.8751C15.0408 14.8751 15.1997 14.8092 15.3169 14.692C15.4342 14.5748 15.5 14.4158 15.5 14.2501V10.5001C15.5 10.3343 15.4342 10.1753 15.3169 10.0581C15.1997 9.94092 15.0408 9.87507 14.875 9.87507Z" fill="#2C2C2C"/>
</svg>
