<svg width="16" height="18" viewBox="0 0 16 18" fill="none" xmlns="http://www.w3.org/2000/svg">
<path d="M14.25 6.25H5.5V4.375C5.5 3.71196 5.76339 3.07607 6.23223 2.60723C6.70107 2.13839 7.33696 1.875 8 1.875C9.20078 1.875 10.2812 2.73438 10.5125 3.87422C10.5468 4.03529 10.6433 4.17629 10.7811 4.26659C10.9188 4.35689 11.0866 4.38919 11.248 4.35645C11.4094 4.32372 11.5514 4.22861 11.643 4.09179C11.7347 3.95497 11.7686 3.7875 11.7375 3.62578C11.3844 1.88672 9.8125 0.625 8 0.625C7.00576 0.626034 6.05253 1.02145 5.34949 1.72449C4.64645 2.42753 4.25103 3.38076 4.25 4.375V6.25H1.75C1.41848 6.25 1.10054 6.3817 0.866116 6.61612C0.631696 6.85054 0.5 7.16848 0.5 7.5V16.25C0.5 16.5815 0.631696 16.8995 0.866116 17.1339C1.10054 17.3683 1.41848 17.5 1.75 17.5H14.25C14.5815 17.5 14.8995 17.3683 15.1339 17.1339C15.3683 16.8995 15.5 16.5815 15.5 16.25V7.5C15.5 7.16848 15.3683 6.85054 15.1339 6.61612C14.8995 6.3817 14.5815 6.25 14.25 6.25ZM14.25 16.25H1.75V7.5H14.25V16.25ZM8 8.75C7.47469 8.75018 6.96698 8.93939 6.56967 9.28305C6.17237 9.62671 5.912 10.1019 5.83616 10.6217C5.76031 11.1415 5.87406 11.6712 6.15661 12.1141C6.43916 12.5569 6.87164 12.8833 7.375 13.0336V14.375C7.375 14.5408 7.44085 14.6997 7.55806 14.8169C7.67527 14.9342 7.83424 15 8 15C8.16576 15 8.32473 14.9342 8.44194 14.8169C8.55915 14.6997 8.625 14.5408 8.625 14.375V13.0336C9.12836 12.8833 9.56084 12.5569 9.84339 12.1141C10.1259 11.6712 10.2397 11.1415 10.1638 10.6217C10.088 10.1019 9.82763 9.62671 9.43033 9.28305C9.03302 8.93939 8.52531 8.75018 8 8.75ZM8 11.875C7.81458 11.875 7.63332 11.82 7.47915 11.717C7.32498 11.614 7.20482 11.4676 7.13386 11.2963C7.06291 11.125 7.04434 10.9365 7.08051 10.7546C7.11669 10.5727 7.20598 10.4057 7.33709 10.2746C7.4682 10.1435 7.63525 10.0542 7.8171 10.018C7.99896 9.98184 8.18746 10.0004 8.35877 10.0714C8.53007 10.1423 8.67649 10.2625 8.7795 10.4167C8.88252 10.5708 8.9375 10.7521 8.9375 10.9375C8.9375 11.1861 8.83873 11.4246 8.66291 11.6004C8.4871 11.7762 8.24864 11.875 8 11.875Z" fill="#2C2C2C"/>
</svg>
