<svg width="32" height="32" viewBox="0 0 32 32" fill="none" xmlns="http://www.w3.org/2000/svg">
<path d="M6.8075 25.1925C5.6575 24.0425 6.42 21.6263 5.835 20.2113C5.2275 18.75 3 17.5625 3 16C3 14.4375 5.2275 13.25 5.835 11.7887C6.42 10.375 5.6575 7.9575 6.8075 6.8075C7.9575 5.6575 10.375 6.42 11.7887 5.835C13.2562 5.2275 14.4375 3 16 3C17.5625 3 18.75 5.2275 20.2113 5.835C21.6263 6.42 24.0425 5.6575 25.1925 6.8075C26.3425 7.9575 25.58 10.3737 26.165 11.7887C26.7725 13.2562 29 14.4375 29 16C29 17.5625 26.7725 18.75 26.165 20.2113C25.58 21.6263 26.3425 24.0425 25.1925 25.1925C24.0425 26.3425 21.6263 25.58 20.2113 26.165C18.75 26.7725 17.5625 29 16 29C14.4375 29 13.25 26.7725 11.7887 26.165C10.375 25.58 7.9575 26.3425 6.8075 25.1925Z" stroke="#444CE7" stroke-width="2" stroke-linecap="round" stroke-linejoin="round"/>
<path d="M16 21.0625C16.7939 21.0625 17.4375 21.7061 17.4375 22.5C17.4375 23.2939 16.7939 23.9375 16 23.9375C15.2061 23.9375 14.5625 23.2939 14.5625 22.5C14.5625 21.7061 15.2061 21.0625 16 21.0625Z" fill="#444CE7" stroke="#444CE7" stroke-width="0.125"/>
<path d="M16 18V17C18.2088 17 20 15.4325 20 13.5C20 11.5675 18.2088 10 16 10C13.7912 10 12 11.5675 12 13.5V14" stroke="#444CE7" stroke-width="2" stroke-linecap="round" stroke-linejoin="round"/>
</svg>
