<svg width="12" height="12" viewBox="0 0 12 12" fill="none" xmlns="http://www.w3.org/2000/svg">
<path d="M9.75005 0.9375H7.87505C7.72587 0.9375 7.5828 0.996763 7.47731 1.10225C7.37182 1.20774 7.31255 1.35082 7.31255 1.5C7.31255 1.64918 7.37182 1.79226 7.47731 1.89775C7.5828 2.00324 7.72587 2.0625 7.87505 2.0625H8.39068L7.65755 2.79703C7.28216 2.48508 6.84013 2.26351 6.36556 2.1494C5.89099 2.03528 5.39656 2.03168 4.92038 2.13887C4.4442 2.24606 3.99899 2.46117 3.61909 2.76762C3.23919 3.07407 2.93474 3.46368 2.72921 3.90639C2.52369 4.34911 2.42258 4.83311 2.43369 5.32108C2.44479 5.80905 2.56781 6.28795 2.79326 6.72086C3.01871 7.15376 3.34057 7.52912 3.73401 7.81797C4.12746 8.10682 4.58199 8.30146 5.06255 8.38688V9H4.12505C3.97587 9 3.8328 9.05926 3.72731 9.16475C3.62182 9.27024 3.56255 9.41332 3.56255 9.5625C3.56255 9.71168 3.62182 9.85476 3.72731 9.96025C3.8328 10.0657 3.97587 10.125 4.12505 10.125H5.06255V10.875C5.06255 11.0242 5.12182 11.1673 5.22731 11.2727C5.3328 11.3782 5.47587 11.4375 5.62505 11.4375C5.77424 11.4375 5.91731 11.3782 6.0228 11.2727C6.12829 11.1673 6.18755 11.0242 6.18755 10.875V10.125H7.12505C7.27424 10.125 7.41731 10.0657 7.5228 9.96025C7.62829 9.85476 7.68755 9.71168 7.68755 9.5625C7.68755 9.41332 7.62829 9.27024 7.5228 9.16475C7.41731 9.05926 7.27424 9 7.12505 9H6.18755V8.38688C6.69097 8.29708 7.16536 8.08736 7.57059 7.77545C7.97582 7.46355 8.29997 7.05863 8.51562 6.59496C8.73127 6.13129 8.83207 5.62251 8.80951 5.11164C8.78695 4.60077 8.64168 4.10285 8.38599 3.66L9.18755 2.85938V3.375C9.18755 3.52418 9.24682 3.66726 9.35231 3.77275C9.4578 3.87824 9.60087 3.9375 9.75005 3.9375C9.89924 3.9375 10.0423 3.87824 10.1478 3.77275C10.2533 3.66726 10.3126 3.52418 10.3126 3.375V1.5C10.3126 1.35082 10.2533 1.20774 10.1478 1.10225C10.0423 0.996763 9.89924 0.9375 9.75005 0.9375ZM5.62505 7.3125C5.21713 7.3125 4.81837 7.19154 4.47919 6.96491C4.14001 6.73828 3.87566 6.41616 3.71955 6.03928C3.56345 5.66241 3.5226 5.24771 3.60218 4.84763C3.68177 4.44754 3.8782 4.08004 4.16665 3.79159C4.45509 3.50315 4.82259 3.30671 5.22268 3.22713C5.62277 3.14755 6.03747 3.18839 6.41434 3.3445C6.79121 3.5006 7.11333 3.76496 7.33996 4.10414C7.56659 4.44331 7.68755 4.84208 7.68755 5.25C7.68693 5.79682 7.46944 6.32106 7.08278 6.70772C6.69612 7.09438 6.17187 7.31188 5.62505 7.3125Z" fill="#9E77ED"/>
</svg>
