<svg width="12" height="12" viewBox="0 0 12 12" fill="none" xmlns="http://www.w3.org/2000/svg">
<path d="M9.9375 4.49997C9.93758 3.74521 9.72072 3.00633 9.31277 2.37132C8.90481 1.73631 8.32295 1.23193 7.63646 0.918246C6.94997 0.604562 6.18779 0.49479 5.44068 0.602003C4.69357 0.709216 3.99302 1.0289 3.42245 1.52298C2.85188 2.01705 2.43533 2.66471 2.22242 3.38882C2.0095 4.11292 2.00919 4.88297 2.22151 5.60725C2.43384 6.33153 2.84986 6.97953 3.42002 7.47407C3.99019 7.96861 4.69048 8.28887 5.4375 8.39669V9.18747H4.125C3.97582 9.18747 3.83274 9.24673 3.72725 9.35222C3.62176 9.45771 3.5625 9.60079 3.5625 9.74997C3.5625 9.89915 3.62176 10.0422 3.72725 10.1477C3.83274 10.2532 3.97582 10.3125 4.125 10.3125H5.4375V11.25C5.4375 11.3992 5.49676 11.5422 5.60225 11.6477C5.70774 11.7532 5.85082 11.8125 6 11.8125C6.14918 11.8125 6.29226 11.7532 6.39775 11.6477C6.50324 11.5422 6.5625 11.3992 6.5625 11.25V10.3125H7.875C8.02418 10.3125 8.16726 10.2532 8.27275 10.1477C8.37824 10.0422 8.4375 9.89915 8.4375 9.74997C8.4375 9.60079 8.37824 9.45771 8.27275 9.35222C8.16726 9.24673 8.02418 9.18747 7.875 9.18747H6.5625V8.39669C7.49907 8.26033 8.35534 7.79165 8.97497 7.07624C9.5946 6.36083 9.93624 5.44641 9.9375 4.49997ZM3.1875 4.49997C3.1875 3.94371 3.35245 3.39994 3.66149 2.93743C3.97053 2.47492 4.40979 2.11443 4.9237 1.90156C5.43762 1.68869 6.00312 1.63299 6.54869 1.74151C7.09426 1.85003 7.5954 2.1179 7.98874 2.51123C8.38207 2.90457 8.64994 3.40571 8.75846 3.95128C8.86698 4.49685 8.81128 5.06235 8.59841 5.57627C8.38554 6.09019 8.02505 6.52944 7.56254 6.83848C7.10003 7.14752 6.55626 7.31247 6 7.31247C5.25435 7.3116 4.53948 7.01501 4.01222 6.48775C3.48496 5.96049 3.18837 5.24563 3.1875 4.49997Z" fill="#D92D20"/>
</svg>
