<svg width="12" height="12" viewBox="0 0 12 12" fill="none" xmlns="http://www.w3.org/2000/svg">
<path d="M10.125 1.3125H7.87502C7.72584 1.3125 7.58276 1.37176 7.47727 1.47725C7.37179 1.58274 7.31252 1.72582 7.31252 1.875C7.31252 2.02418 7.37179 2.16726 7.47727 2.27275C7.58276 2.37824 7.72584 2.4375 7.87502 2.4375H8.76565L7.2319 3.97219C6.43457 3.37631 5.44114 3.10452 4.45151 3.21151C3.46189 3.31851 2.54951 3.79635 1.89797 4.54888C1.24642 5.3014 0.904069 6.27277 0.939795 7.26753C0.975522 8.26228 1.38668 9.20658 2.09053 9.91043C2.79437 10.6143 3.73868 11.0254 4.73343 11.0612C5.72819 11.0969 6.69956 10.7545 7.45208 10.103C8.20461 9.45145 8.68245 8.53907 8.78944 7.54945C8.89644 6.55982 8.62465 5.56639 8.02877 4.76906L9.56252 3.23438V4.125C9.56252 4.27418 9.62179 4.41726 9.72727 4.52275C9.83276 4.62824 9.97584 4.6875 10.125 4.6875C10.2742 4.6875 10.4173 4.62824 10.5228 4.52275C10.6283 4.41726 10.6875 4.27418 10.6875 4.125V1.875C10.6875 1.72582 10.6283 1.58274 10.5228 1.47725C10.4173 1.37176 10.2742 1.3125 10.125 1.3125ZM6.86299 9.11531C6.46961 9.50853 5.96847 9.77629 5.42293 9.88471C4.87739 9.99314 4.31195 9.93738 3.7981 9.72447C3.28424 9.51157 2.84506 9.15108 2.53607 8.68859C2.22708 8.22611 2.06216 7.68238 2.06216 7.12617C2.06216 6.56996 2.22708 6.02624 2.53607 5.56375C2.84506 5.10126 3.28424 4.74077 3.7981 4.52787C4.31195 4.31496 4.87739 4.2592 5.42293 4.36763C5.96847 4.47606 6.46961 4.74381 6.86299 5.13703C7.38954 5.66512 7.68522 6.38043 7.68522 7.12617C7.68522 7.87191 7.38954 8.58723 6.86299 9.11531Z" fill="#079455"/>
</svg>
