<svg width="15" height="20" viewBox="0 0 15 20" fill="none" xmlns="http://www.w3.org/2000/svg">
<path d="M14.2071 9.80151L5.45711 19.1765C5.36438 19.2755 5.24198 19.3416 5.10839 19.3649C4.97479 19.3882 4.83724 19.3674 4.7165 19.3056C4.59576 19.2439 4.49837 19.1446 4.43904 19.0226C4.3797 18.9007 4.36164 18.7627 4.38757 18.6296L5.53289 12.9007L1.03054 11.2101C0.933849 11.1739 0.847621 11.1144 0.779561 11.0367C0.711502 10.9591 0.663731 10.8658 0.640517 10.7653C0.617303 10.6647 0.619369 10.5599 0.64653 10.4603C0.673692 10.3607 0.725102 10.2694 0.796168 10.1945L9.54617 0.819477C9.63889 0.72052 9.76129 0.654407 9.89489 0.631115C10.0285 0.607823 10.166 0.628614 10.2868 0.690353C10.4075 0.752091 10.5049 0.851427 10.5642 0.973369C10.6236 1.09531 10.6416 1.23324 10.6157 1.36635L9.46726 7.10151L13.9696 8.78979C14.0656 8.8262 14.1511 8.88569 14.2187 8.96301C14.2862 9.04033 14.3336 9.13309 14.3568 9.2331C14.38 9.33311 14.3781 9.43728 14.3515 9.53642C14.3248 9.63555 14.2742 9.7266 14.204 9.80151H14.2071Z" fill="#F5F8FF"/>
</svg>
