<svg width="16" height="16" viewBox="0 0 16 16" fill="none" xmlns="http://www.w3.org/2000/svg">
<path d="M6.375 14.875C6.375 15.0408 6.30915 15.1997 6.19194 15.3169C6.07473 15.4342 5.91576 15.5 5.75 15.5H0.75C0.58424 15.5 0.425269 15.4342 0.308058 15.3169C0.190848 15.1997 0.125 15.0408 0.125 14.875V1.125C0.125 0.95924 0.190848 0.800269 0.308058 0.683058C0.425269 0.565848 0.58424 0.5 0.75 0.5H5.75C5.91576 0.5 6.07473 0.565848 6.19194 0.683058C6.30915 0.800269 6.375 0.95924 6.375 1.125C6.375 1.29076 6.30915 1.44973 6.19194 1.56694C6.07473 1.68415 5.91576 1.75 5.75 1.75H1.375V14.25H5.75C5.91576 14.25 6.07473 14.3158 6.19194 14.4331C6.30915 14.5503 6.375 14.7092 6.375 14.875ZM14.9422 7.55781L11.8172 4.43281C11.6999 4.31554 11.5409 4.24965 11.375 4.24965C11.2091 4.24965 11.0501 4.31554 10.9328 4.43281C10.8155 4.55009 10.7497 4.70915 10.7497 4.875C10.7497 5.04085 10.8155 5.19991 10.9328 5.31719L12.9914 7.375H5.75C5.58424 7.375 5.42527 7.44085 5.30806 7.55806C5.19085 7.67527 5.125 7.83424 5.125 8C5.125 8.16576 5.19085 8.32473 5.30806 8.44194C5.42527 8.55915 5.58424 8.625 5.75 8.625H12.9914L10.9328 10.6828C10.8155 10.8001 10.7497 10.9591 10.7497 11.125C10.7497 11.2909 10.8155 11.4499 10.9328 11.5672C11.0501 11.6845 11.2091 11.7503 11.375 11.7503C11.5409 11.7503 11.6999 11.6845 11.8172 11.5672L14.9422 8.44219C15.0003 8.38414 15.0464 8.31521 15.0779 8.23934C15.1093 8.16346 15.1255 8.08213 15.1255 8C15.1255 7.91787 15.1093 7.83654 15.0779 7.76066C15.0464 7.68479 15.0003 7.61586 14.9422 7.55781Z" fill="#E31B54"/>
</svg>
