<svg width="11" height="11" viewBox="0 0 11 11" fill="none" xmlns="http://www.w3.org/2000/svg">
<path d="M10.125 0.3125H7.87502C7.72584 0.3125 7.58276 0.371763 7.47727 0.477252C7.37179 0.582742 7.31252 0.725816 7.31252 0.875C7.31252 1.02418 7.37179 1.16726 7.47727 1.27275C7.58276 1.37824 7.72584 1.4375 7.87502 1.4375H8.76565L7.2319 2.97219C6.43457 2.37631 5.44114 2.10452 4.45151 2.21151C3.46189 2.31851 2.54951 2.79635 1.89797 3.54888C1.24642 4.3014 0.904069 5.27277 0.939795 6.26753C0.975522 7.26228 1.38668 8.20658 2.09053 8.91043C2.79437 9.61428 3.73868 10.0254 4.73343 10.0612C5.72819 10.0969 6.69956 9.75454 7.45208 9.10299C8.20461 8.45145 8.68245 7.53907 8.78944 6.54945C8.89644 5.55982 8.62465 4.56639 8.02877 3.76906L9.56252 2.23438V3.125C9.56252 3.27418 9.62179 3.41726 9.72727 3.52275C9.83276 3.62824 9.97584 3.6875 10.125 3.6875C10.2742 3.6875 10.4173 3.62824 10.5228 3.52275C10.6283 3.41726 10.6875 3.27418 10.6875 3.125V0.875C10.6875 0.725816 10.6283 0.582742 10.5228 0.477252C10.4173 0.371763 10.2742 0.3125 10.125 0.3125ZM6.86299 8.11531C6.46961 8.50853 5.96847 8.77629 5.42293 8.88471C4.87739 8.99314 4.31195 8.93738 3.7981 8.72447C3.28424 8.51157 2.84506 8.15108 2.53607 7.68859C2.22708 7.22611 2.06216 6.68238 2.06216 6.12617C2.06216 5.56996 2.22708 5.02624 2.53607 4.56375C2.84506 4.10126 3.28424 3.74077 3.7981 3.52787C4.31195 3.31496 4.87739 3.2592 5.42293 3.36763C5.96847 3.47606 6.46961 3.74381 6.86299 4.13703C7.38954 4.66512 7.68522 5.38043 7.68522 6.12617C7.68522 6.87191 7.38954 7.58723 6.86299 8.11531Z" fill="#079455"/>
</svg>
