<svg width="10" height="10" viewBox="0 0 10 10" fill="none" xmlns="http://www.w3.org/2000/svg">
<path d="M8.14437 7.48075C8.23243 7.56881 8.2819 7.68824 8.2819 7.81278C8.2819 7.93731 8.23243 8.05675 8.14437 8.14481C8.05631 8.23287 7.93687 8.28234 7.81234 8.28234C7.6878 8.28234 7.56836 8.23287 7.4803 8.14481L5.00023 5.66395L2.51937 8.14403C2.43131 8.23209 2.31187 8.28156 2.18734 8.28156C2.0628 8.28156 1.94337 8.23209 1.85531 8.14403C1.76725 8.05597 1.71777 7.93653 1.71777 7.812C1.71777 7.68746 1.76725 7.56802 1.85531 7.47996L4.33616 4.99989L1.85609 2.51903C1.76803 2.43097 1.71855 2.31153 1.71855 2.18699C1.71855 2.06246 1.76803 1.94302 1.85609 1.85496C1.94415 1.7669 2.06358 1.71743 2.18812 1.71743C2.31265 1.71743 2.43209 1.7669 2.52015 1.85496L5.00023 4.33582L7.48109 1.85457C7.56915 1.76651 7.68858 1.71704 7.81312 1.71704C7.93765 1.71704 8.05709 1.76651 8.14515 1.85457C8.23321 1.94263 8.28268 2.06207 8.28268 2.1866C8.28268 2.31114 8.23321 2.43058 8.14515 2.51864L5.66429 4.99989L8.14437 7.48075Z" fill="#2C2C2C"/>
</svg>
