<svg width="26" height="26" viewBox="0 0 26 26" fill="none" xmlns="http://www.w3.org/2000/svg">
<path d="M21.6179 4.38206C19.3322 2.09643 16.2323 0.812378 12.9999 0.812378C9.76754 0.812378 6.66756 2.09643 4.38194 4.38206C2.09631 6.66769 0.812256 9.76766 0.812256 13C0.812256 16.2324 2.09631 19.3324 4.38194 21.618C6.66756 23.9036 9.76754 25.1877 12.9999 25.1877C16.2323 25.1877 19.3322 23.9036 21.6179 21.618C23.9035 19.3324 25.1876 16.2324 25.1876 13C25.1876 9.76766 23.9035 6.66768 21.6179 4.38206ZM8.3124 20.5C8.3124 20.0027 8.50995 19.5258 8.86158 19.1742C9.21321 18.8226 9.69012 18.625 10.1874 18.625C10.6847 18.625 11.1616 18.8226 11.5132 19.1742C11.8649 19.5258 12.0624 20.0027 12.0624 20.5V23.2645C10.755 23.1463 9.48224 22.7796 8.3124 22.184V20.5ZM13.9374 20.5C13.9374 20.0027 14.1349 19.5258 14.4866 19.1742C14.8382 18.8226 15.3151 18.625 15.8124 18.625C16.3097 18.625 16.7866 18.8226 17.1382 19.1742C17.4899 19.5258 17.6874 20.0027 17.6874 20.5V22.184C16.5176 22.7796 15.2448 23.1463 13.9374 23.2645V20.5ZM10.5706 13.9375H15.4292L16.7862 16.8789C16.1112 16.697 15.3986 16.7078 14.7294 16.9102C14.0602 17.1125 13.461 17.4983 12.9999 18.0239C12.5388 17.4983 11.9396 17.1125 11.2704 16.9102C10.6012 16.7078 9.88864 16.697 9.21358 16.8789L10.5706 13.9375ZM11.4366 12.0625L12.9999 8.67464L14.5632 12.0625H11.4366ZM20.2913 20.2926C20.0569 20.527 19.8132 20.7461 19.5624 20.9535V18.625C19.5626 18.4894 19.533 18.3554 19.4757 18.2324L13.8507 6.04495C13.7755 5.88259 13.6555 5.74512 13.5047 5.64878C13.354 5.55244 13.1788 5.50125 12.9999 5.50125C12.821 5.50125 12.6458 5.55244 12.4951 5.64878C12.3443 5.74512 12.2243 5.88259 12.1491 6.04495L6.52412 18.2324C6.46684 18.3554 6.43724 18.4894 6.4374 18.625V20.9535C6.18662 20.7461 5.94287 20.527 5.7085 20.2926C4.26609 18.8504 3.28374 17.0129 2.88569 15.0125C2.48763 13.012 2.69175 10.9384 3.47223 9.05392C4.2527 7.16946 5.57448 5.55876 7.2704 4.42553C8.96632 3.2923 10.9602 2.68743 12.9999 2.68743C15.0396 2.68743 17.0335 3.2923 18.7294 4.42553C20.4253 5.55876 21.7471 7.16946 22.5276 9.05392C23.3081 10.9384 23.5122 13.012 23.1141 15.0125C22.7161 17.0129 21.7337 18.8504 20.2913 20.2926Z" fill="#F5F8FF"/>
</svg>
