<svg width="18" height="18" viewBox="0 0 18 18" fill="none" xmlns="http://www.w3.org/2000/svg">
<path d="M16.6453 7.03281C16.3508 6.725 16.0461 6.40781 15.9312 6.12891C15.825 5.87344 15.8187 5.45 15.8125 5.03984C15.8008 4.27734 15.7883 3.41328 15.1875 2.8125C14.5867 2.21172 13.7227 2.19922 12.9602 2.1875C12.55 2.18125 12.1266 2.175 11.8711 2.06875C11.593 1.95391 11.275 1.64922 10.9672 1.35469C10.4281 0.836719 9.81563 0.25 9 0.25C8.18437 0.25 7.57266 0.836719 7.03281 1.35469C6.725 1.64922 6.40781 1.95391 6.12891 2.06875C5.875 2.175 5.45 2.18125 5.03984 2.1875C4.27734 2.19922 3.41328 2.21172 2.8125 2.8125C2.21172 3.41328 2.20312 4.27734 2.1875 5.03984C2.18125 5.45 2.175 5.87344 2.06875 6.12891C1.95391 6.40703 1.64922 6.725 1.35469 7.03281C0.836719 7.57188 0.25 8.18437 0.25 9C0.25 9.81563 0.836719 10.4273 1.35469 10.9672C1.64922 11.275 1.95391 11.5922 2.06875 11.8711C2.175 12.1266 2.18125 12.55 2.1875 12.9602C2.19922 13.7227 2.21172 14.5867 2.8125 15.1875C3.41328 15.7883 4.27734 15.8008 5.03984 15.8125C5.45 15.8187 5.87344 15.825 6.12891 15.9312C6.40703 16.0461 6.725 16.3508 7.03281 16.6453C7.57188 17.1633 8.18437 17.75 9 17.75C9.81563 17.75 10.4273 17.1633 10.9672 16.6453C11.275 16.3508 11.5922 16.0461 11.8711 15.9312C12.1266 15.825 12.55 15.8187 12.9602 15.8125C13.7227 15.8008 14.5867 15.7883 15.1875 15.1875C15.7883 14.5867 15.8008 13.7227 15.8125 12.9602C15.8187 12.55 15.825 12.1266 15.9312 11.8711C16.0461 11.593 16.3508 11.275 16.6453 10.9672C17.1633 10.4281 17.75 9.81563 17.75 9C17.75 8.18437 17.1633 7.57266 16.6453 7.03281ZM9 14C8.81458 14 8.63332 13.945 8.47915 13.842C8.32498 13.739 8.20482 13.5926 8.13386 13.4213C8.06291 13.25 8.04434 13.0615 8.08051 12.8796C8.11669 12.6977 8.20598 12.5307 8.33709 12.3996C8.4682 12.2685 8.63525 12.1792 8.8171 12.143C8.99896 12.1068 9.18746 12.1254 9.35876 12.1964C9.53007 12.2673 9.67649 12.3875 9.7795 12.5417C9.88252 12.6958 9.9375 12.8771 9.9375 13.0625C9.9375 13.3111 9.83873 13.5496 9.66291 13.7254C9.4871 13.9012 9.24864 14 9 14ZM9.625 10.1938V10.25C9.625 10.4158 9.55915 10.5747 9.44194 10.6919C9.32473 10.8092 9.16576 10.875 9 10.875C8.83424 10.875 8.67527 10.8092 8.55806 10.6919C8.44085 10.5747 8.375 10.4158 8.375 10.25V9.625C8.375 9.45924 8.44085 9.30027 8.55806 9.18306C8.67527 9.06585 8.83424 9 9 9C10.0336 9 10.875 8.29688 10.875 7.4375C10.875 6.57812 10.0336 5.875 9 5.875C7.96641 5.875 7.125 6.57812 7.125 7.4375V7.75C7.125 7.91576 7.05915 8.07473 6.94194 8.19194C6.82473 8.30915 6.66576 8.375 6.5 8.375C6.33424 8.375 6.17527 8.30915 6.05806 8.19194C5.94085 8.07473 5.875 7.91576 5.875 7.75V7.4375C5.875 5.88672 7.27656 4.625 9 4.625C10.7234 4.625 12.125 5.88672 12.125 7.4375C12.125 8.79531 11.05 9.93203 9.625 10.1938Z" fill="none"/>
</svg>
