<svg width="18" height="18" viewBox="0 0 18 18" fill="none" xmlns="http://www.w3.org/2000/svg">
<path d="M16.9419 16.0579L13.0302 12.1469C14.1639 10.7858 14.7293 9.03989 14.6086 7.2725C14.488 5.50512 13.6906 3.85229 12.3823 2.65785C11.074 1.46341 9.35566 0.819317 7.58462 0.859567C5.81357 0.899817 4.12622 1.62131 2.87358 2.87395C1.62094 4.12659 0.899451 5.81394 0.859201 7.58498C0.818951 9.35603 1.46304 11.0744 2.65748 12.3827C3.85192 13.6909 5.50475 14.4883 7.27214 14.609C9.03953 14.7297 10.7854 14.1643 12.1466 13.0305L16.0575 16.9422C16.1156 17.0003 16.1845 17.0464 16.2604 17.0778C16.3363 17.1092 16.4176 17.1254 16.4997 17.1254C16.5818 17.1254 16.6631 17.1092 16.739 17.0778C16.8149 17.0464 16.8838 17.0003 16.9419 16.9422C16.9999 16.8842 17.046 16.8152 17.0774 16.7394C17.1089 16.6635 17.125 16.5822 17.125 16.5001C17.125 16.4179 17.1089 16.3366 17.0774 16.2607C17.046 16.1849 16.9999 16.1159 16.9419 16.0579ZM2.12469 7.75006C2.12469 6.63754 2.45459 5.55 3.07267 4.62497C3.69076 3.69995 4.56926 2.97898 5.5971 2.55323C6.62493 2.12749 7.75593 2.0161 8.84707 2.23314C9.93822 2.45018 10.9405 2.98591 11.7272 3.77258C12.5138 4.55925 13.0496 5.56153 13.2666 6.65267C13.4837 7.74382 13.3723 8.87482 12.9465 9.90265C12.5208 10.9305 11.7998 11.809 10.8748 12.4271C9.94975 13.0452 8.86221 13.3751 7.74969 13.3751C6.25836 13.3734 4.82858 12.7802 3.77404 11.7257C2.71951 10.6712 2.12634 9.24139 2.12469 7.75006Z" fill="#757575"/>
</svg>
