<svg width="19" height="18" viewBox="0 0 19 18" fill="none" xmlns="http://www.w3.org/2000/svg">
<path d="M17.1453 7.03281C16.8508 6.725 16.5461 6.40781 16.4312 6.12891C16.325 5.87344 16.3187 5.45 16.3125 5.03984C16.3008 4.27734 16.2883 3.41328 15.6875 2.8125C15.0867 2.21172 14.2227 2.19922 13.4602 2.1875C13.05 2.18125 12.6266 2.175 12.3711 2.06875C12.093 1.95391 11.775 1.64922 11.4672 1.35469C10.9281 0.836719 10.3156 0.25 9.5 0.25C8.68437 0.25 8.07266 0.836719 7.53281 1.35469C7.225 1.64922 6.90781 1.95391 6.62891 2.06875C6.375 2.175 5.95 2.18125 5.53984 2.1875C4.77734 2.19922 3.91328 2.21172 3.3125 2.8125C2.71172 3.41328 2.70312 4.27734 2.6875 5.03984C2.68125 5.45 2.675 5.87344 2.56875 6.12891C2.45391 6.40703 2.14922 6.725 1.85469 7.03281C1.33672 7.57188 0.75 8.18437 0.75 9C0.75 9.81563 1.33672 10.4273 1.85469 10.9672C2.14922 11.275 2.45391 11.5922 2.56875 11.8711C2.675 12.1266 2.68125 12.55 2.6875 12.9602C2.69922 13.7227 2.71172 14.5867 3.3125 15.1875C3.91328 15.7883 4.77734 15.8008 5.53984 15.8125C5.95 15.8187 6.37344 15.825 6.62891 15.9312C6.90703 16.0461 7.225 16.3508 7.53281 16.6453C8.07188 17.1633 8.68437 17.75 9.5 17.75C10.3156 17.75 10.9273 17.1633 11.4672 16.6453C11.775 16.3508 12.0922 16.0461 12.3711 15.9312C12.6266 15.825 13.05 15.8187 13.4602 15.8125C14.2227 15.8008 15.0867 15.7883 15.6875 15.1875C16.2883 14.5867 16.3008 13.7227 16.3125 12.9602C16.3187 12.55 16.325 12.1266 16.4312 11.8711C16.5461 11.593 16.8508 11.275 17.1453 10.9672C17.6633 10.4281 18.25 9.81563 18.25 9C18.25 8.18437 17.6633 7.57266 17.1453 7.03281ZM9.5 14C9.31458 14 9.13332 13.945 8.97915 13.842C8.82498 13.739 8.70482 13.5926 8.63386 13.4213C8.56291 13.25 8.54434 13.0615 8.58051 12.8796C8.61669 12.6977 8.70598 12.5307 8.83709 12.3996C8.9682 12.2685 9.13525 12.1792 9.3171 12.143C9.49896 12.1068 9.68746 12.1254 9.85876 12.1964C10.0301 12.2673 10.1765 12.3875 10.2795 12.5417C10.3825 12.6958 10.4375 12.8771 10.4375 13.0625C10.4375 13.3111 10.3387 13.5496 10.1629 13.7254C9.9871 13.9012 9.74864 14 9.5 14ZM10.125 10.1938V10.25C10.125 10.4158 10.0592 10.5747 9.94194 10.6919C9.82473 10.8092 9.66576 10.875 9.5 10.875C9.33424 10.875 9.17527 10.8092 9.05806 10.6919C8.94085 10.5747 8.875 10.4158 8.875 10.25V9.625C8.875 9.45924 8.94085 9.30027 9.05806 9.18306C9.17527 9.06585 9.33424 9 9.5 9C10.5336 9 11.375 8.29688 11.375 7.4375C11.375 6.57812 10.5336 5.875 9.5 5.875C8.46641 5.875 7.625 6.57812 7.625 7.4375V7.75C7.625 7.91576 7.55915 8.07473 7.44194 8.19194C7.32473 8.30915 7.16576 8.375 7 8.375C6.83424 8.375 6.67527 8.30915 6.55806 8.19194C6.44085 8.07473 6.375 7.91576 6.375 7.75V7.4375C6.375 5.88672 7.77656 4.625 9.5 4.625C11.2234 4.625 12.625 5.88672 12.625 7.4375C12.625 8.79531 11.55 9.93203 10.125 10.1938Z" fill="#F5F8FF"/>
</svg>
